<svg xmlns="http://www.w3.org/2000/svg" xmlns:xlink="http://www.w3.org/1999/xlink" width="106" height="106" viewBox="0 0 106 106">
  <defs>
    <filter id="矩形_294" x="0" y="0" width="106" height="106" filterUnits="userSpaceOnUse">
      <feOffset dy="3" input="SourceAlpha"/>
      <feGaussianBlur stdDeviation="8" result="blur"/>
      <feFlood flood-opacity="0.161"/>
      <feComposite operator="in" in2="blur"/>
      <feComposite in="SourceGraphic"/>
    </filter>
  </defs>
  <g id="camera" transform="translate(-142 -724)">
    <g id="bg">
      <rect id="矩形_295" data-name="矩形 295" width="70" height="70" rx="35" transform="translate(160 739)" fill="#f4a135" opacity="0.2"/>
      <g transform="matrix(1, 0, 0, 1, 142, 724)" filter="url(#矩形_294)">
        <rect id="矩形_294-2" data-name="矩形 294" width="58" height="58" rx="29" transform="translate(24 21)" fill="#fff"/>
      </g>
    </g>
    <g id="camera_icon" transform="translate(183 762)" opacity="0.6">
      <path id="路径_223" data-name="路径 223" d="M17.757,3.01,16.34,1.172A3.033,3.033,0,0,0,13.956,0H10.08A3.033,3.033,0,0,0,7.7,1.172L6.279,3.01Z" transform="translate(0.02 0)" fill="#404040"/>
      <circle id="椭圆_38" data-name="椭圆 38" cx="4.376" cy="4.376" r="4.376" transform="translate(7.662 9.534)" fill="#404040"/>
      <path id="路径_224" data-name="路径 224" d="M19.06,5H5.016A5.022,5.022,0,0,0,0,10.016v9.029A5.022,5.022,0,0,0,5.016,24.06H19.06a5.022,5.022,0,0,0,5.016-5.016V10.016A5.022,5.022,0,0,0,19.06,5ZM12.038,20.048a6.019,6.019,0,1,1,6.019-6.019,6.019,6.019,0,0,1-6.019,6.019Z" transform="translate(0 0.016)" fill="#404040"/>
    </g>
  </g>
</svg>
