<svg xmlns="http://www.w3.org/2000/svg" xmlns:xlink="http://www.w3.org/1999/xlink" width="76" height="76" viewBox="0 0 76 76">
  <defs>
    <filter id="Rectangle" x="0" y="0" width="76" height="76" filterUnits="userSpaceOnUse">
      <feOffset dy="3" input="SourceAlpha"/>
      <feGaussianBlur stdDeviation="8" result="blur"/>
      <feFlood flood-opacity="0.161"/>
      <feComposite operator="in" in2="blur"/>
      <feComposite in="SourceGraphic"/>
    </filter>
  </defs>
  <g id="Send_Button" data-name="Send Button" transform="translate(-304 -754)">
    <g id="Circle" transform="translate(325 772)">
      <rect id="Rectangle-2" data-name="Rectangle" width="34" height="34" rx="17" transform="translate(0 0)" fill="#f4a135" opacity="0.2"/>
      <g transform="matrix(1, 0, 0, 1, -21, -18)" filter="url(#Rectangle)">
        <rect id="Rectangle-3" data-name="Rectangle" width="28" height="28" rx="14" transform="translate(24 21)" fill="#fafafa"/>
      </g>
    </g>
    <g id="send" transform="translate(337.2 783.197)">
      <path id="Path" d="M10.91,39.7,1.551,35.211a1,1,0,0,0-1.162.217,1.416,1.416,0,0,0-.352,1.3l.833,3.779H4.948a.4.4,0,0,1,0,.786H.869L.036,45.072a1.416,1.416,0,0,0,.352,1.3,1,1,0,0,0,1.162.217L10.91,42.1a1.382,1.382,0,0,0,0-2.394Z" transform="translate(-0.001 -35.111)" fill="#f4a135"/>
    </g>
  </g>
</svg>
