<svg id="TikTok_Icon" data-name="TikTok+ Icon" xmlns="http://www.w3.org/2000/svg" width="43" height="27" viewBox="0 0 43 27">
  <g id="Icon">
    <rect id="Rectangle" width="36" height="27" rx="8" transform="translate(7)" fill="#e5436d"/>
    <rect id="Rectangle-2" data-name="Rectangle" width="36" height="27" rx="8" fill="#65d1e8"/>
    <rect id="Rectangle-3" data-name="Rectangle" width="36" height="27" rx="8" transform="translate(3.5)" fill="#fff"/>
  </g>
  <path id="Combined_Shape" data-name="Combined Shape" d="M5.75,13a.5.5,0,0,1-.5-.5V7.75H.5a.5.5,0,0,1-.5-.5V5.75a.5.5,0,0,1,.5-.5H5.25V.5a.5.5,0,0,1,.5-.5h1.5a.5.5,0,0,1,.5.5V5.25H12.5a.5.5,0,0,1,.5.5v1.5a.5.5,0,0,1-.5.5H7.75V12.5a.5.5,0,0,1-.5.5Z" transform="translate(15 7)" fill="#161822"/>
</svg>
