<?xml version="1.0" standalone="no"?><!DOCTYPE svg PUBLIC "-//W3C//DTD SVG 1.1//EN" "http://www.w3.org/Graphics/SVG/1.1/DTD/svg11.dtd"><svg t="1626928490152" class="icon" viewBox="0 0 1024 1024" version="1.1" xmlns="http://www.w3.org/2000/svg" p-id="6283" width="200" height="200" xmlns:xlink="http://www.w3.org/1999/xlink"><defs><style type="text/css">@font-face { font-family: feedback-iconfont; src: url("//at.alicdn.com/t/font_1031158_1uhr8ri0pk5.eot?#iefix") format("embedded-opentype"), url("//at.alicdn.com/t/font_1031158_1uhr8ri0pk5.woff2") format("woff2"), url("//at.alicdn.com/t/font_1031158_1uhr8ri0pk5.woff") format("woff"), url("//at.alicdn.com/t/font_1031158_1uhr8ri0pk5.ttf") format("truetype"), url("//at.alicdn.com/t/font_1031158_1uhr8ri0pk5.svg#iconfont") format("svg"); }
</style></defs><path d="M400.1389479506172 836.9291061728396C220.97873477530868 836.9291061728396 75.74060246913587 691.7427553975309 75.74060246913587 512.6472691358025 75.74060246913587 333.5517828740741 220.97873477530868 188.36543209876544 400.1389479506172 188.36543209876544s324.39834548148144 145.18635077530865 324.39834548148144 324.281837037037c0 179.09548626172835-145.23813230617282 324.281837037037-324.39834548148144 324.281837037037zM221.1599701333334 490.28282595555555c30.890272237037028 0 55.930526024691346-25.032486558024686 55.930526024691346-55.91110795061728 0-30.878621392592592-25.040253787654322-55.91110795061728-55.930526024691346-55.91110795061728-30.88897769876543 0-55.930526024691346 25.032486558024686-55.930526024691346 55.91110795061728 0 30.878621392592592 25.041548325925927 55.91110795061728 55.930526024691346 55.91110795061728zM948.2593975308641 394.9737402469136v232.20521339259255c0 12.353778725925926-10.015842607407407 22.369621333333335-22.369621333333335 22.369621333333335a22.369621333333335 22.369621333333335 0 0 1-15.648378627160493-6.3846627555555555l-123.88731259259258-121.27234528395063c-8.82875101234568-8.641042962962963-8.978917451851851-22.80458619259259-0.3365799506172839-31.63333720493827 0.34305264197530866-0.34952533333333335 0.6964615901234569-0.6886943604938272 1.061521382716049-1.0162125432098765l123.88731259259258-110.93416264691359c9.204167111111111-8.241030637037037 23.34699772839506-7.4604240592592586 31.588028365432095 1.7424485135802468A22.369621333333335 22.369621333333335 0 0 1 948.2593975308641 394.9737402469136z" fill="#ffffff" p-id="6284"></path></svg>