<svg width="24" height="24" viewBox="0 0 24 24" fill="none" xmlns="http://www.w3.org/2000/svg">
<path fill-rule="evenodd" clip-rule="evenodd" d="M12 3.53846C10.4751 3.53846 8.42753 3.70582 6.99542 3.8447C6.40117 3.90233 5.93741 4.3731 5.89141 4.96993C5.749 6.81754 5.54839 9.81282 5.54839 12C5.54839 14.1872 5.749 17.1825 5.89141 19.0301C5.93741 19.6269 6.40117 20.0977 6.99542 20.1553C8.42753 20.2942 10.4751 20.4615 12 20.4615C13.5249 20.4615 15.5725 20.2942 17.0046 20.1553C17.5988 20.0977 18.0626 19.6269 18.1086 19.0301C18.251 17.1825 18.4516 14.1872 18.4516 12C18.4516 9.81282 18.251 6.81754 18.1086 4.96993C18.0626 4.3731 17.5988 3.90233 17.0046 3.8447C15.5725 3.70582 13.5249 3.53846 12 3.53846ZM6.84502 2.31351C8.28091 2.17427 10.3935 2 12 2C13.6065 2 15.7191 2.17427 17.155 2.31351C18.5029 2.44423 19.5495 3.51605 19.6525 4.85245C19.7949 6.70071 20 9.74813 20 12C20 14.2519 19.7949 17.2993 19.6525 19.1476C19.5495 20.484 18.5029 21.5558 17.155 21.6865C15.7191 21.8257 13.6065 22 12 22C10.3935 22 8.28091 21.8257 6.84502 21.6865C5.49709 21.5558 4.45055 20.484 4.34754 19.1476C4.20508 17.2993 4 14.2519 4 12C4 9.74813 4.20508 6.70071 4.34754 4.85245C4.45055 3.51605 5.49709 2.44423 6.84502 2.31351Z" fill="#030D45"/>
<path fill-rule="evenodd" clip-rule="evenodd" d="M10.1935 17.1282C10.1935 16.7034 10.5402 16.359 10.9677 16.359H13.0323C13.4598 16.359 13.8065 16.7034 13.8065 17.1282C13.8065 17.553 13.4598 17.8974 13.0323 17.8974H10.9677C10.5402 17.8974 10.1935 17.553 10.1935 17.1282Z" fill="#030D45"/>
<path d="M13.0323 6.8718C13.0323 7.43824 12.5701 7.89744 12 7.89744C11.4299 7.89744 10.9677 7.43824 10.9677 6.8718C10.9677 6.30535 11.4299 5.84615 12 5.84615C12.5701 5.84615 13.0323 6.30535 13.0323 6.8718Z" fill="#030D45"/>
</svg>
